<svg xmlns="http://www.w3.org/2000/svg" viewBox="0 0 512 512">
  <defs>
    <linearGradient id="g" x1="0" y1="0" x2="1" y2="1">
      <stop offset="0%" stop-color="#FF9E2C"/><stop offset="55%" stop-color="#FF6B57"/>
      <stop offset="100%" stop-color="#FF4E8B"/>
    </linearGradient>
  </defs>
  <rect width="512" height="512" rx="112" fill="url(#g)"/>
  <circle cx="256" cy="212" r="76" fill="#FFE7A3"/>
  <path d="M0 356c48 0 64-22 106-22s58 22 106 22 64-22 106-22 58 22 106 22 64-22 88-22v178H0z" fill="#00BFA6" opacity=".92"/>
  <path d="M0 404c48 0 64-20 106-20s58 20 106 20 64-20 106-20 58 20 106 20 64-20 88-20v128H0z" fill="#00A0B8" opacity=".95"/>
</svg>